<svg xmlns="http://www.w3.org/2000/svg" viewBox="0 0 386.8 47.06"><defs><style>.cls-1{fill:#fff;}.cls-2{fill:#ff006e;}</style></defs><title>Asset 4</title><g id="Layer_2" data-name="Layer 2"><g id="Layer_1-2" data-name="Layer 1"><path class="cls-1" d="M6.53,11l7.55,18.67-2.59-.55L18.39,11H23.7l-11.26,26L1.16,11Z" transform="translate(-1.16)"/><path class="cls-1" d="M28.19,11H45v4.32H32.64v5.91H43.55v4.32H32.64v6H45.42v4.32H28.19Z" transform="translate(-1.16)"/><path class="cls-1" d="M58,11a11.93,11.93,0,0,1,5.08,1,7.3,7.3,0,0,1,3.27,2.82,8.12,8.12,0,0,1,1.14,4.38,10.41,10.41,0,0,1-.46,3,8.09,8.09,0,0,1-1.47,2.72,7.15,7.15,0,0,1-2.68,2,10.13,10.13,0,0,1-4.13.75H55.15v8.26H50.69V11Zm.71,12.31a4.24,4.24,0,0,0,2.54-.66,3.51,3.51,0,0,0,1.25-1.59,4.64,4.64,0,0,0,.36-1.7,5.67,5.67,0,0,0-.15-1.19,4.23,4.23,0,0,0-.58-1.34,3.24,3.24,0,0,0-1.24-1.09,4.6,4.6,0,0,0-2.11-.42h-3.6v8Zm4.46,2.75,6.25,9.83h-5.2L57.8,26.18Z" transform="translate(-1.16)"/><path class="cls-1" d="M71.67,23.46a12.23,12.23,0,0,1,1-4.84,12.82,12.82,0,0,1,2.72-4.06,13.2,13.2,0,0,1,4-2.79,11.93,11.93,0,0,1,4.91-1,12.24,12.24,0,0,1,4.93,1,13.16,13.16,0,0,1,6.85,6.84,12,12,0,0,1,1,4.87,12.2,12.2,0,0,1-1,4.95,13,13,0,0,1-2.77,4.05,12.82,12.82,0,0,1-4.08,2.73,12.41,12.41,0,0,1-4.93,1,12.24,12.24,0,0,1-4.91-1,12.83,12.83,0,0,1-4-2.72,12.32,12.32,0,0,1-2.72-4A12.62,12.62,0,0,1,71.67,23.46Zm4.62,0a8.38,8.38,0,0,0,4,7.24,7.83,7.83,0,0,0,4.13,1.12,7.63,7.63,0,0,0,4.1-1.12,8.13,8.13,0,0,0,2.87-3,8.46,8.46,0,0,0,1.06-4.23,8.45,8.45,0,0,0-1.09-4.29,8.35,8.35,0,0,0-2.91-3,8.1,8.1,0,0,0-8.22,0,8.21,8.21,0,0,0-2.89,3A8.54,8.54,0,0,0,76.29,23.5Z" transform="translate(-1.16)"/><path class="cls-1" d="M124.27,36.86l-19-17.75,1.32.68.1,16.12H102.2V10.1h.17L121,27.78l-1-.37L119.92,11h4.48V36.86Z" transform="translate(-1.16)"/><path class="cls-1" d="M131.07,11h4.45V35.91h-4.45Z" transform="translate(-1.16)"/><path class="cls-1" d="M146.71,20.2l-.14,1.22.68-.85L155.92,11h5.82L151.43,22l10.48,13.87h-5.68l-8.06-11-1.46,1.43v9.59h-4.52V11h4.52Z" transform="translate(-1.16)"/><path class="cls-1" d="M163.13,35.91,174.28,10h.24l11.15,25.91H180.5L173.06,17l3.23-2.17-8.74,21.08Zm7.34-9.11h8L180,30.57H169.11Z" transform="translate(-1.16)"/><path d="M206.68,35.91V10.07h0l13.6,19.31-1.9-.41L232,10.07h.07V35.91h-4.49V20.17l.28,2.27L219.2,34.79h-.07l-8.91-12.35.78-2.1V35.91Z" transform="translate(-1.16)"/><path d="M236,35.91,247.11,10h.24L258.5,35.91h-5.17L245.89,17l3.23-2.17-8.74,21.08Zm7.34-9.11h8l1.56,3.77H241.94Z" transform="translate(-1.16)"/><path d="M269.69,11a12,12,0,0,1,5.08,1A7.28,7.28,0,0,1,278,14.83a8.12,8.12,0,0,1,1.14,4.38,10.08,10.08,0,0,1-.46,3,7.89,7.89,0,0,1-1.46,2.72,7.19,7.19,0,0,1-2.69,2,10.1,10.1,0,0,1-4.13.75h-3.57v8.26h-4.45V11Zm.71,12.31a4.21,4.21,0,0,0,2.53-.66,3.61,3.61,0,0,0,1.26-1.59,4.64,4.64,0,0,0,.36-1.7,5.15,5.15,0,0,0-.16-1.19,4.2,4.2,0,0,0-.57-1.34,3.32,3.32,0,0,0-1.24-1.09,4.63,4.63,0,0,0-2.11-.42h-3.61v8Zm4.45,2.75,6.26,9.83h-5.2l-6.39-9.73Z" transform="translate(-1.16)"/><path d="M290,20.2l-.14,1.22.68-.85L299.23,11H305l-10.3,11,10.47,13.87h-5.67l-8.06-11L290,26.32v9.59H285.5V11H290Z" transform="translate(-1.16)"/><path d="M306.58,23.46a12.4,12.4,0,0,1,1-4.84,12.87,12.87,0,0,1,2.72-4.06,13.2,13.2,0,0,1,4.05-2.79,12,12,0,0,1,4.91-1,12.21,12.21,0,0,1,4.93,1,13.1,13.1,0,0,1,4.08,2.77A13.25,13.25,0,0,1,331,18.58a12.08,12.08,0,0,1,1,4.88,12.21,12.21,0,0,1-1,4.95,13,13,0,0,1-2.77,4.05,12.82,12.82,0,0,1-4.08,2.73,12.72,12.72,0,0,1-9.84,0,12.83,12.83,0,0,1-4.05-2.72,12.48,12.48,0,0,1-2.72-4A12.82,12.82,0,0,1,306.58,23.46Zm4.62,0a8.38,8.38,0,0,0,4,7.24,7.78,7.78,0,0,0,4.13,1.12,7.65,7.65,0,0,0,4.1-1.12,8.13,8.13,0,0,0,2.87-3,8.56,8.56,0,0,0,1.05-4.23,8.45,8.45,0,0,0-1.09-4.29,8.32,8.32,0,0,0-2.9-3,8.12,8.12,0,0,0-8.23,0,8.22,8.22,0,0,0-2.89,3A8.64,8.64,0,0,0,311.2,23.5Z" transform="translate(-1.16)"/><path d="M338.64,11l7.54,18.67-2.58-.55L350.5,11h5.31l-11.26,26L333.26,11Z" transform="translate(-1.16)"/><path d="M354.41,35.91,365.57,10h.23L377,35.91h-5.17L364.34,17l3.23-2.17-8.74,21.08Zm7.35-9.11h7.95l1.57,3.77H360.4Z" transform="translate(-1.16)"/><rect class="cls-2" x="194.53" width="192.27" height="47.06"/><path class="cls-1" d="M206.68,35.91V10.07h0l13.6,19.31-1.9-.41L232,10.07h.07V35.91h-4.49V20.17l.28,2.27L219.2,34.79h-.07l-8.91-12.35.78-2.1V35.91Z" transform="translate(-1.16)"/><path class="cls-1" d="M236,35.91,247.11,10h.24L258.5,35.91h-5.17L245.89,17l3.23-2.17-8.74,21.08Zm7.34-9.11h8l1.56,3.77H241.94Z" transform="translate(-1.16)"/><path class="cls-1" d="M269.69,11a12,12,0,0,1,5.08,1A7.28,7.28,0,0,1,278,14.83a8.12,8.12,0,0,1,1.14,4.38,10.08,10.08,0,0,1-.46,3,7.89,7.89,0,0,1-1.46,2.72,7.19,7.19,0,0,1-2.69,2,10.1,10.1,0,0,1-4.13.75h-3.57v8.26h-4.45V11Zm.71,12.31a4.21,4.21,0,0,0,2.53-.66,3.61,3.61,0,0,0,1.26-1.59,4.64,4.64,0,0,0,.36-1.7,5.15,5.15,0,0,0-.16-1.19,4.2,4.2,0,0,0-.57-1.34,3.32,3.32,0,0,0-1.24-1.09,4.63,4.63,0,0,0-2.11-.42h-3.61v8Zm4.45,2.75,6.26,9.83h-5.2l-6.39-9.73Z" transform="translate(-1.16)"/><path class="cls-1" d="M290,20.2l-.14,1.22.68-.85L299.23,11H305l-10.3,11,10.47,13.87h-5.67l-8.06-11L290,26.32v9.59H285.5V11H290Z" transform="translate(-1.16)"/><path class="cls-1" d="M306.58,23.46a12.4,12.4,0,0,1,1-4.84,12.87,12.87,0,0,1,2.72-4.06,13.2,13.2,0,0,1,4.05-2.79,12,12,0,0,1,4.91-1,12.21,12.21,0,0,1,4.93,1,13.1,13.1,0,0,1,4.08,2.77A13.25,13.25,0,0,1,331,18.58a12.08,12.08,0,0,1,1,4.88,12.21,12.21,0,0,1-1,4.95,13,13,0,0,1-2.77,4.05,12.82,12.82,0,0,1-4.08,2.73,12.72,12.72,0,0,1-9.84,0,12.83,12.83,0,0,1-4.05-2.72,12.48,12.48,0,0,1-2.72-4A12.82,12.82,0,0,1,306.58,23.46Zm4.62,0a8.38,8.38,0,0,0,4,7.24,7.78,7.78,0,0,0,4.13,1.12,7.65,7.65,0,0,0,4.1-1.12,8.13,8.13,0,0,0,2.87-3,8.56,8.56,0,0,0,1.05-4.23,8.45,8.45,0,0,0-1.09-4.29,8.32,8.32,0,0,0-2.9-3,8.12,8.12,0,0,0-8.23,0,8.22,8.22,0,0,0-2.89,3A8.64,8.64,0,0,0,311.2,23.5Z" transform="translate(-1.16)"/><path class="cls-1" d="M338.64,11l7.54,18.67-2.58-.55L350.5,11h5.31l-11.26,26L333.26,11Z" transform="translate(-1.16)"/><path class="cls-1" d="M354.41,35.91,365.57,10h.23L377,35.91h-5.17L364.34,17l3.23-2.17-8.74,21.08Zm7.35-9.11h7.95l1.57,3.77H360.4Z" transform="translate(-1.16)"/></g></g></svg>